<svg height="512pt" viewBox="-53 0 512 512" width="512pt" xmlns="http://www.w3.org/2000/svg"><path d="m406.261719 120.886719c.308593-4.316407-1.230469-8.648438-4.398438-11.820313l-104.621093-104.621094c-3.269532-3.273437-7.789063-4.8125-12.242188-4.367187-.503906-.0507812-269.820312-.078125-269.820312-.078125-8.382813 0-15.179688 6.796875-15.179688 15.179688v481.640624c0 8.382813 6.796875 15.179688 15.179688 15.179688h375.949218c8.382813 0 15.179688-6.796875 15.179688-15.179688 0 0-.027344-375.621093-.046875-375.933593zm-104.574219-69.066407 52.800781 52.800782h-52.800781zm74.265625 429.824219h-345.597656v-451.289062h240.976562v89.445312c0 8.382813 6.796875 15.175781 15.175781 15.175781h89.445313zm0 0"/><path d="m321.574219 396.972656h-97.203125c-8.382813 0-15.179688 6.792969-15.179688 15.175782 0 8.382812 6.796875 15.179687 15.179688 15.179687h97.203125c8.378906 0 15.175781-6.796875 15.175781-15.179687 0-8.382813-6.796875-15.175782-15.175781-15.175782zm0 0"/><path d="m321.574219 285.789062h-97.203125c-8.382813 0-15.179688 6.792969-15.179688 15.175782 0 8.382812 6.796875 15.179687 15.179688 15.179687h97.203125c8.378906 0 15.175781-6.796875 15.175781-15.179687 0-8.382813-6.796875-15.175782-15.175781-15.175782zm0 0"/><path d="m209.191406 189.785156c0 8.382813 6.796875 15.175782 15.179688 15.175782h97.199218c8.382813 0 15.179688-6.792969 15.179688-15.175782 0-8.382812-6.796875-15.179687-15.179688-15.179687h-97.199218c-8.382813 0-15.179688 6.796875-15.179688 15.179687zm0 0"/><path d="m140.71875 368.980469h-55.980469c-8.382812 0-15.179687 6.796875-15.179687 15.179687v55.976563c0 8.382812 6.796875 15.179687 15.179687 15.179687h55.976563c8.382812 0 15.179687-6.796875 15.179687-15.179687v-55.976563c0-8.382812-6.796875-15.179687-15.175781-15.179687zm-15.179688 55.980469h-25.625v-25.625h25.625zm0 0"/><path d="m140.71875 257.800781h-55.980469c-8.382812 0-15.179687 6.792969-15.179687 15.175781v55.980469c0 8.382813 6.796875 15.175781 15.179687 15.175781h55.976563c8.382812 0 15.179687-6.792968 15.179687-15.175781v-55.980469c0-8.382812-6.796875-15.175781-15.175781-15.175781zm-15.179688 55.976563h-25.625v-25.621094h25.625zm0 0"/><path d="m140.71875 146.617188h-55.980469c-8.382812 0-15.179687 6.792968-15.179687 15.175781v55.980469c0 8.382812 6.796875 15.179687 15.179687 15.179687h55.976563c8.382812 0 15.179687-6.796875 15.179687-15.179687v-55.980469c0-8.382813-6.796875-15.175781-15.175781-15.175781zm-15.179688 55.980468h-25.625v-25.625h25.625zm0 0"/></svg>