<?xml version="1.0" encoding="utf-8"?>
<!-- Generator: Adobe Illustrator 24.2.1, SVG Export Plug-In . SVG Version: 6.00 Build 0)  -->
<svg version="1.1" id="Layer_1" xmlns="http://www.w3.org/2000/svg" xmlns:xlink="http://www.w3.org/1999/xlink" x="0px" y="0px"
	 viewBox="0 0 595.28 700" style="enable-background:new 0 0 595.28 841.89;" xml:space="preserve">
<style type="text/css">
	.st0{fill:#FFFFFF;}
</style>
<polygon class="st0" points="120.82,366.46 120.82,378.16 328.22,378.16 340.6,343.27 371.94,420.31 392.73,364.67 476.8,364.67 
	476.8,351.37 379.58,351.37 369.49,377.35 340.75,305.51 317.32,366.46 "/>
<path class="st0" d="M427.32,287.77c-14.35,0-25.98,11.63-25.98,25.98s11.63,25.98,25.98,25.98s25.98-11.63,25.98-25.98
	S441.66,287.77,427.32,287.77z M441.46,327.4l-9.06-5.03v10.36h-10.17v-10.36l-9.06,5.03l-4.93-8.89l8.6-4.77l-8.6-4.77l4.93-8.89
	l9.06,5.03v-10.36h10.17v10.36l9.06-5.03l4.93,8.89l-8.6,4.77l8.6,4.77L441.46,327.4z"/>
<g>
	<path class="st0" d="M151.67,305c0,9.89-6.31,15.55-14.88,15.55c-8.78,0-14.34-6.37-14.34-15.02c0-9.07,6.03-15.48,14.8-15.48
		C146.32,290.04,151.67,296.55,151.67,305z M128.45,305.41c0,6.03,3.2,10.82,8.63,10.82c5.48,0,8.59-4.85,8.59-11.03
		c0-5.57-2.91-10.84-8.58-10.84C131.48,294.36,128.45,299.34,128.45,305.41z"/>
	<path class="st0" d="M156.54,320.06v-29.54h6.49l8.03,12.68c2.05,3.26,3.86,6.69,5.29,9.9l0.11-0.03
		c-0.4-3.92-0.51-7.73-0.51-12.24v-10.31h5.25v29.54h-5.89l-8.11-12.99c-1.98-3.24-4.05-6.84-5.57-10.19l-0.15,0.03
		c0.23,3.84,0.3,7.74,0.3,12.59v10.57H156.54z"/>
	<path class="st0" d="M205.12,306.96H193.4v8.67h13.1v4.44h-18.78v-29.54h18.1v4.44H193.4v7.59h11.72V306.96z"/>
</g>
<g>
	<path class="st0" d="M123.24,330.05c1.98-0.39,4.82-0.61,7.52-0.61c4.19,0,6.89,0.74,8.78,2.41c1.53,1.31,2.39,3.33,2.39,5.61
		c0,3.9-2.52,6.49-5.72,7.54v0.13c2.34,0.79,3.74,2.89,4.46,5.96c0.99,4.12,1.71,6.97,2.34,8.11h-4.05
		c-0.5-0.83-1.17-3.37-2.03-7.06c-0.9-4.08-2.52-5.61-6.08-5.74h-3.69v12.8h-3.92V330.05z M127.15,343.51h4.01
		c4.19,0,6.84-2.23,6.84-5.61c0-3.81-2.84-5.48-6.98-5.52c-1.89,0-3.24,0.18-3.87,0.35V343.51z"/>
	<path class="st0" d="M163.16,345.35h-11.79v10.65h13.14v3.2h-17.06v-29.54h16.39v3.2h-12.47v9.33h11.79V345.35z"/>
	<path class="st0" d="M169.06,354.55c1.76,1.05,4.32,1.93,7.02,1.93c4.01,0,6.35-2.06,6.35-5.04c0-2.76-1.62-4.34-5.72-5.87
		c-4.95-1.71-8.01-4.21-8.01-8.37c0-4.6,3.92-8.02,9.81-8.02c3.11,0,5.36,0.7,6.71,1.45l-1.08,3.11c-0.99-0.53-3.02-1.4-5.76-1.4
		c-4.14,0-5.72,2.41-5.72,4.43c0,2.76,1.85,4.12,6.03,5.7c5.13,1.93,7.74,4.34,7.74,8.68c0,4.56-3.47,8.5-10.62,8.5
		c-2.93,0-6.12-0.83-7.74-1.88L169.06,354.55z"/>
	<path class="st0" d="M191.79,330.01c1.89-0.31,4.37-0.57,7.52-0.57c3.87,0,6.71,0.88,8.51,2.45c1.67,1.4,2.66,3.55,2.66,6.18
		c0,2.67-0.81,4.78-2.34,6.31c-2.07,2.15-5.45,3.24-9.27,3.24c-1.17,0-2.25-0.04-3.15-0.26v11.83h-3.92V330.01z M195.71,344.25
		c0.85,0.22,1.94,0.31,3.24,0.31c4.73,0,7.61-2.23,7.61-6.31c0-3.9-2.84-5.78-7.16-5.78c-1.71,0-3.02,0.13-3.69,0.31V344.25z"/>
	<path class="st0" d="M241.66,344.12c0,10.17-6.35,15.56-14.09,15.56c-8.01,0-13.64-6.05-13.64-14.99c0-9.38,5.99-15.51,14.09-15.51
		C236.31,329.17,241.66,335.35,241.66,344.12z M218.12,344.6c0,6.31,3.51,11.96,9.68,11.96c6.21,0,9.72-5.57,9.72-12.27
		c0-5.87-3.15-12.01-9.68-12.01C221.36,332.29,218.12,338.11,218.12,344.6z"/>
	<path class="st0" d="M246.75,359.19v-29.54h4.28l9.72,14.94c2.25,3.46,4.01,6.57,5.45,9.6l0.09-0.04
		c-0.36-3.94-0.45-7.54-0.45-12.14v-12.36h3.69v29.54h-3.96l-9.63-14.99c-2.12-3.29-4.14-6.66-5.67-9.86l-0.14,0.04
		c0.23,3.73,0.32,7.27,0.32,12.18v12.62H246.75z"/>
	<path class="st0" d="M275.83,354.55c1.76,1.05,4.32,1.93,7.02,1.93c4.01,0,6.35-2.06,6.35-5.04c0-2.76-1.62-4.34-5.72-5.87
		c-4.95-1.71-8.01-4.21-8.01-8.37c0-4.6,3.92-8.02,9.81-8.02c3.11,0,5.36,0.7,6.71,1.45l-1.08,3.11c-0.99-0.53-3.02-1.4-5.76-1.4
		c-4.14,0-5.72,2.41-5.72,4.43c0,2.76,1.85,4.12,6.03,5.7c5.13,1.93,7.74,4.34,7.74,8.68c0,4.56-3.47,8.5-10.62,8.5
		c-2.93,0-6.12-0.83-7.74-1.88L275.83,354.55z"/>
	<path class="st0" d="M314.27,345.35h-11.79v10.65h13.14v3.2h-17.06v-29.54h16.38v3.2h-12.47v9.33h11.79V345.35z"/>
</g>
<g>
	<polygon class="st0" points="428,321.89 428.12,314.53 427.2,314.53 427.07,314.54 427.18,321.89 	"/>
	<path class="st0" d="M428.48,317.14l-0.16-0.02l-0.02,0.93l0.14,0.01c0.37,0.04,1.24,0.22,1.24,1.03c0,0.3-0.09,0.54-0.26,0.7
		c-0.34,0.32-0.92,0.31-0.99,0.3l-0.15-0.01l-0.01,0.82l0.17-0.02c0.05-0.01,0.12-0.01,0.18-0.02c0.63-0.05,1.81-0.13,1.81-1.78
		C430.42,317.42,428.68,317.17,428.48,317.14z"/>
	<path class="st0" d="M426.82,301.89l-0.16,0.12l-0.03,0.04c-0.03,0.05-0.05,0.1-0.05,0.16v0.06c0,0.16,0.13,0.28,0.28,0.28h1.47
		c0.16,0,0.28-0.13,0.28-0.28v-0.06c0-0.06-0.02-0.11-0.05-0.16l-0.21-0.16l0.22-0.24c0.16-0.21,0.24-0.46,0.24-0.73
		c0-0.67-0.55-1.22-1.22-1.22c-0.68,0-1.22,0.55-1.22,1.22c0,0.26,0.08,0.51,0.25,0.74L426.82,301.89z"/>
	<path class="st0" d="M427.21,323.59c0.03,2.07,0.05,3.35,0.05,3.45c0,0.5,0.22,0.64,0.26,0.66l0.07,0.03l0.07-0.03
		c0.04-0.02,0.26-0.16,0.26-0.66c0-0.1,0.02-1.52,0.05-3.45l0-0.15h-0.77L427.21,323.59z"/>
	<path class="st0" d="M427.14,303.33c0.32,0,0.65,0.07,0.95,0.2l0.21,0.09l0.02-0.88h-1.43l0.01,0.59L427.14,303.33z"/>
	<path class="st0" d="M428.4,322.12c-0.1-0.01-0.19-0.01-0.27-0.01h-1.04c-0.09,0-0.18-0.01-0.26-0.03
		c-0.25-0.07-0.37-0.24-0.37-0.54c0-0.19,0.08-0.34,0.26-0.44c0,0,0.05-0.03,0.1-0.04l0.11-0.03l-0.02-1l-0.3,0v0.06
		c-0.43,0.1-1.07,0.63-1.07,1.51c0,0.91,0.64,1.51,1.24,1.61c0.2,0.03,0.38,0.02,0.57,0.01c0.16,0,0.32-0.01,0.48-0.01
		c0.19-0.01,0.37-0.01,0.54-0.01l0.21,0c0.49,0,0.73,0.25,0.73,0.78c0,0.66-0.48,1.34-0.48,1.34l-0.25,0.35l0.41-0.12
		c0.24-0.07,0.99-1.14,0.99-2.18C429.99,322.63,429.42,322.19,428.4,322.12z"/>
	<path class="st0" d="M427.1,305.63l-0.18-0.03l0.05,3.16l0.15,0c0.33,0,0.64,0,0.93,0.01l0.15,0.01l0.05-2.95l0-0.15l-0.15,0
		C427.77,305.68,427.41,305.69,427.1,305.63z"/>
	<path class="st0" d="M428.14,313.15l0.05-2.99l-0.15-0.01c-0.18-0.01-0.36-0.01-0.56-0.01H427l0.05,2.86l0.01,0.15L428.14,313.15z"
		/>
	<path class="st0" d="M428.6,309.05c-0.17-0.01-0.35-0.03-0.54-0.03c-0.17-0.01-0.35-0.01-0.54-0.01h-1.66
		c-0.02,0-2.29-0.03-2.29-2.26c0-1.84,1.55-2.04,2.21-2.04c0.17,0,0.34,0.11,0.55,0.25l0.13,0.08c0.14,0.09,0.33,0.2,0.56,0.28
		c0.29,0.11,0.58,0.16,0.9,0.16c0.07,0,0.14,0,0.2,0c0.18-0.01,0.56-0.02,0.67-0.34c0.02-0.06,0.03-0.12,0.03-0.18
		c0-0.06,0-0.14-0.02-0.22c-0.06-0.37-0.26-0.67-0.59-0.87c-0.29-0.18-0.68-0.28-1.17-0.31c-0.17-0.01-0.36-0.01-0.54,0
		c-1.79,0.09-3.69,0.99-3.69,3.28c0,2.43,2.13,3.07,3.39,3.07l0.41,0c0.14,0,0.27,0,0.39,0c0.36,0,0.71,0,1.04,0.02
		c0.17,0.01,0.35,0.02,0.53,0.04c0.13,0.01,0.27,0.03,0.4,0.05c1.09,0.17,2.1,0.5,2.1,1.81c0,1.31-0.71,1.57-1.95,1.57h-1.92
		c-0.16,0-0.37,0.04-0.58,0.12c-0.44,0.16-1.47,0.67-1.47,2.09c0,1.19,0.52,1.97,1.53,2.31l0.2,0.07l-0.02-0.99l-0.12-0.02
		c-0.15-0.03-0.88-0.22-0.88-1.39c0-0.61,0.29-1.02,0.85-1.19c0.19-0.06,0.38-0.08,0.5-0.09c0.06,0,0.12,0,0.15,0h2.1
		c0.55,0,2.36-0.18,2.36-2.46C431.82,310.09,430.83,309.24,428.6,309.05z"/>
</g>
</svg>